<svg width="272" height="76" viewBox="0 0 272 76" fill="none" xmlns="http://www.w3.org/2000/svg">
<mask id="path-1-inside-1_39_36" fill="white">
<path d="M0 0H272V75.792H0V0Z"/>
</mask>
<path d="M272 75.792V74.792H0V75.792V76.792H272V75.792Z" fill="#F4F4F5" mask="url(#path-1-inside-1_39_36)"/>
<g clip-path="url(#clip0_39_36)">
<rect x="32" y="24" width="27.792" height="27.792" rx="6" fill="#0B68F7"/>
<path d="M45.6748 30.349L45.6758 30.35L45.6777 30.349L45.6768 30.35C45.885 30.3532 46.0869 30.4222 46.252 30.5492L46.3672 30.6537C46.4733 30.7667 46.5515 30.9043 46.5938 31.055L49.4717 41.2904L50.8877 37.5169L50.9492 37.3832C51.0208 37.2555 51.1209 37.145 51.2422 37.0609L51.3691 36.9867C51.5005 36.9225 51.6455 36.8891 51.793 36.889H74.1826C74.4391 36.8891 74.6848 36.9909 74.8662 37.1722L74.9307 37.2435C75.0717 37.4157 75.1504 37.6323 75.1504 37.8568C75.1503 38.0811 75.0716 38.2971 74.9307 38.4691L74.8662 38.5404C74.6848 38.7217 74.4391 38.8235 74.1826 38.8236H52.4639L50.2461 44.7367C50.1924 44.8798 50.1058 45.0073 49.9941 45.1097L49.875 45.2035C49.7474 45.288 49.6018 45.3404 49.4512 45.3578L49.2998 45.3636C49.147 45.3572 48.9983 45.3148 48.8662 45.2406L48.7402 45.1556C48.6202 45.0607 48.5253 44.9389 48.4619 44.8011L48.4092 44.6585L45.6123 34.7152L44.541 38.1449C44.4949 38.2926 44.4142 38.4263 44.3066 38.5355L44.1904 38.6361C44.0661 38.7275 43.9224 38.7875 43.7715 38.8119L43.6182 38.8236H22.8174C22.5928 38.8236 22.3763 38.7459 22.2041 38.6048L22.1338 38.5404C21.9524 38.359 21.8497 38.1133 21.8496 37.8568C21.8496 37.6002 21.9523 37.3537 22.1338 37.1722L22.2041 37.1078C22.3762 36.9667 22.5929 36.8891 22.8174 36.889H42.9072L44.7383 31.0277L44.7959 30.8832C44.8653 30.7444 44.9677 30.6234 45.0947 30.5316L45.2275 30.4515C45.3648 30.3826 45.5169 30.3483 45.6719 30.35L45.6729 30.349H45.6748Z" fill="white" stroke="white" stroke-width="0.3"/>
</g>
<path d="M71.086 46.116C70.1474 46.116 69.3187 45.8887 68.6 45.434C67.896 44.9794 67.346 44.334 66.95 43.498C66.554 42.6474 66.356 41.65 66.356 40.506C66.356 39.3474 66.554 38.3574 66.95 37.536C67.346 36.7 67.896 36.0547 68.6 35.6C69.3187 35.1454 70.1474 34.918 71.086 34.918C71.9807 34.918 72.758 35.138 73.418 35.578C74.0927 36.018 74.5474 36.5974 74.782 37.316H74.54V31.596C74.54 31.1414 74.6574 30.7967 74.892 30.562C75.1267 30.3274 75.464 30.21 75.904 30.21C76.344 30.21 76.6814 30.3274 76.916 30.562C77.1654 30.7967 77.29 31.1414 77.29 31.596V44.664C77.29 45.1187 77.1727 45.4707 76.938 45.72C76.7034 45.9547 76.366 46.072 75.926 46.072C75.486 46.072 75.1487 45.9547 74.914 45.72C74.6794 45.4707 74.562 45.1187 74.562 44.664V42.948L74.804 43.608C74.584 44.3707 74.1367 44.9794 73.462 45.434C72.7874 45.8887 71.9954 46.116 71.086 46.116ZM71.856 44.026C72.3987 44.026 72.8754 43.894 73.286 43.63C73.6967 43.366 74.012 42.9774 74.232 42.464C74.4667 41.936 74.584 41.2834 74.584 40.506C74.584 39.3327 74.3347 38.46 73.836 37.888C73.3374 37.3014 72.6774 37.008 71.856 37.008C71.3134 37.008 70.8367 37.14 70.426 37.404C70.0154 37.6534 69.6927 38.042 69.458 38.57C69.238 39.0834 69.128 39.7287 69.128 40.506C69.128 41.6647 69.3774 42.5447 69.876 43.146C70.3747 43.7327 71.0347 44.026 71.856 44.026ZM81.5494 46.072C81.0948 46.072 80.7428 45.9547 80.4934 45.72C80.2588 45.4707 80.1414 45.1187 80.1414 44.664V36.348C80.1414 35.8934 80.2588 35.5487 80.4934 35.314C80.7281 35.0794 81.0581 34.962 81.4834 34.962C81.9088 34.962 82.2388 35.0794 82.4734 35.314C82.7081 35.5487 82.8254 35.8934 82.8254 36.348V37.734H82.6054C82.8108 36.854 83.2141 36.1867 83.8154 35.732C84.4168 35.2774 85.2161 35.006 86.2134 34.918C86.5214 34.8887 86.7634 34.9694 86.9394 35.16C87.1301 35.336 87.2401 35.6147 87.2694 35.996C87.2988 36.3627 87.2108 36.6634 87.0054 36.898C86.8148 37.118 86.5214 37.25 86.1254 37.294L85.6414 37.338C84.7468 37.426 84.0721 37.7047 83.6174 38.174C83.1628 38.6287 82.9354 39.274 82.9354 40.11V44.664C82.9354 45.1187 82.8181 45.4707 82.5834 45.72C82.3488 45.9547 82.0041 46.072 81.5494 46.072ZM89.5825 46.006C89.0839 46.006 88.6805 45.852 88.3725 45.544C88.0792 45.236 87.9325 44.84 87.9325 44.356C87.9325 43.8867 88.0792 43.5054 88.3725 43.212C88.6805 42.904 89.0839 42.75 89.5825 42.75C90.0959 42.75 90.4919 42.904 90.7705 43.212C91.0639 43.5054 91.2105 43.8867 91.2105 44.356C91.2105 44.84 91.0639 45.236 90.7705 45.544C90.4919 45.852 90.0959 46.006 89.5825 46.006ZM97.1971 46.116C96.4198 46.116 95.7231 45.9694 95.1071 45.676C94.5058 45.368 94.0291 44.9574 93.6771 44.444C93.3398 43.9307 93.1711 43.3514 93.1711 42.706C93.1711 41.914 93.3764 41.2907 93.7871 40.836C94.1978 40.3667 94.8651 40.0294 95.7891 39.824C96.7131 39.6187 97.9524 39.516 99.5071 39.516H100.607V41.1H99.5291C98.6198 41.1 97.8938 41.144 97.3511 41.232C96.8084 41.32 96.4198 41.474 96.1851 41.694C95.9651 41.8994 95.8551 42.1927 95.8551 42.574C95.8551 43.058 96.0238 43.454 96.3611 43.762C96.6984 44.07 97.1678 44.224 97.7691 44.224C98.2531 44.224 98.6784 44.114 99.0451 43.894C99.4264 43.6594 99.7271 43.344 99.9471 42.948C100.167 42.552 100.277 42.0974 100.277 41.584V39.054C100.277 38.3207 100.116 37.7927 99.7931 37.47C99.4704 37.1474 98.9278 36.986 98.1651 36.986C97.7398 36.986 97.2778 37.0374 96.7791 37.14C96.2951 37.2427 95.7818 37.4187 95.2391 37.668C94.9604 37.8 94.7111 37.8367 94.4911 37.778C94.2858 37.7194 94.1244 37.602 94.0071 37.426C93.8898 37.2354 93.8311 37.03 93.8311 36.81C93.8311 36.59 93.8898 36.3774 94.0071 36.172C94.1244 35.952 94.3224 35.7907 94.6011 35.688C95.2758 35.4094 95.9211 35.2114 96.5371 35.094C97.1678 34.9767 97.7398 34.918 98.2531 34.918C99.3091 34.918 100.174 35.0794 100.849 35.402C101.538 35.7247 102.052 36.216 102.389 36.876C102.726 37.5214 102.895 38.3574 102.895 39.384V44.664C102.895 45.1187 102.785 45.4707 102.565 45.72C102.345 45.9547 102.03 46.072 101.619 46.072C101.208 46.072 100.886 45.9547 100.651 45.72C100.431 45.4707 100.321 45.1187 100.321 44.664V43.608H100.497C100.394 44.1214 100.189 44.5687 99.8811 44.95C99.5878 45.3167 99.2138 45.6027 98.7591 45.808C98.3044 46.0134 97.7838 46.116 97.1971 46.116ZM110.702 50.076C109.91 50.076 109.14 50.0027 108.392 49.856C107.659 49.7094 106.992 49.482 106.39 49.174C106.112 49.0274 105.921 48.8514 105.818 48.646C105.73 48.4407 105.701 48.228 105.73 48.008C105.774 47.8027 105.862 47.6194 105.994 47.458C106.141 47.2967 106.317 47.1867 106.522 47.128C106.728 47.0694 106.94 47.0987 107.16 47.216C107.806 47.5387 108.414 47.744 108.986 47.832C109.573 47.9347 110.072 47.986 110.482 47.986C111.465 47.986 112.198 47.744 112.682 47.26C113.181 46.7907 113.43 46.0867 113.43 45.148V43.168H113.628C113.408 43.916 112.946 44.5174 112.242 44.972C111.553 45.412 110.768 45.632 109.888 45.632C108.92 45.632 108.077 45.412 107.358 44.972C106.64 44.5174 106.082 43.8867 105.686 43.08C105.29 42.2734 105.092 41.3347 105.092 40.264C105.092 39.4574 105.202 38.7314 105.422 38.086C105.657 37.426 105.98 36.8614 106.39 36.392C106.816 35.9227 107.322 35.5634 107.908 35.314C108.51 35.05 109.17 34.918 109.888 34.918C110.798 34.918 111.59 35.1454 112.264 35.6C112.954 36.04 113.401 36.6267 113.606 37.36L113.386 37.91V36.348C113.386 35.8934 113.504 35.5487 113.738 35.314C113.988 35.0794 114.325 34.962 114.75 34.962C115.19 34.962 115.528 35.0794 115.762 35.314C115.997 35.5487 116.114 35.8934 116.114 36.348V44.818C116.114 46.5634 115.652 47.876 114.728 48.756C113.804 49.636 112.462 50.076 110.702 50.076ZM110.636 43.542C111.208 43.542 111.7 43.41 112.11 43.146C112.521 42.882 112.836 42.508 113.056 42.024C113.291 41.5254 113.408 40.9387 113.408 40.264C113.408 39.252 113.159 38.46 112.66 37.888C112.162 37.3014 111.487 37.008 110.636 37.008C110.064 37.008 109.573 37.14 109.162 37.404C108.752 37.668 108.429 38.042 108.194 38.526C107.974 39.01 107.864 39.5894 107.864 40.264C107.864 41.276 108.114 42.0754 108.612 42.662C109.111 43.2487 109.786 43.542 110.636 43.542ZM124.266 46.116C123.048 46.116 122 45.8887 121.12 45.434C120.24 44.9794 119.558 44.334 119.074 43.498C118.604 42.662 118.37 41.672 118.37 40.528C118.37 39.4134 118.597 38.438 119.052 37.602C119.521 36.766 120.159 36.1134 120.966 35.644C121.787 35.16 122.718 34.918 123.76 34.918C124.522 34.918 125.204 35.0427 125.806 35.292C126.422 35.5414 126.942 35.9007 127.368 36.37C127.808 36.8394 128.138 37.4114 128.358 38.086C128.592 38.746 128.71 39.494 128.71 40.33C128.71 40.594 128.614 40.7994 128.424 40.946C128.248 41.078 127.991 41.144 127.654 41.144H120.592V39.56H126.774L126.422 39.89C126.422 39.2154 126.319 38.6507 126.114 38.196C125.923 37.7414 125.637 37.3967 125.256 37.162C124.889 36.9127 124.427 36.788 123.87 36.788C123.254 36.788 122.726 36.9347 122.286 37.228C121.86 37.5067 121.53 37.91 121.296 38.438C121.076 38.9514 120.966 39.5674 120.966 40.286V40.44C120.966 41.6427 121.244 42.5447 121.802 43.146C122.374 43.7327 123.21 44.026 124.31 44.026C124.691 44.026 125.116 43.982 125.586 43.894C126.07 43.7914 126.524 43.6227 126.95 43.388C127.258 43.212 127.529 43.1387 127.764 43.168C127.998 43.1827 128.182 43.2634 128.314 43.41C128.46 43.5567 128.548 43.74 128.578 43.96C128.607 44.1654 128.563 44.378 128.446 44.598C128.343 44.818 128.16 45.0087 127.896 45.17C127.382 45.4927 126.788 45.7347 126.114 45.896C125.454 46.0427 124.838 46.116 124.266 46.116ZM132.252 46.072C131.812 46.072 131.474 45.9547 131.24 45.72C131.005 45.4707 130.888 45.1187 130.888 44.664V36.348C130.888 35.8934 131.005 35.5487 131.24 35.314C131.474 35.0794 131.804 34.962 132.23 34.962C132.655 34.962 132.985 35.0794 133.22 35.314C133.454 35.5487 133.572 35.8934 133.572 36.348V37.844L133.33 37.294C133.652 36.5167 134.151 35.93 134.826 35.534C135.515 35.1234 136.292 34.918 137.158 34.918C138.023 34.918 138.734 35.0794 139.292 35.402C139.849 35.7247 140.267 36.216 140.546 36.876C140.824 37.5214 140.964 38.3427 140.964 39.34V44.664C140.964 45.1187 140.846 45.4707 140.612 45.72C140.377 45.9547 140.04 46.072 139.6 46.072C139.16 46.072 138.815 45.9547 138.566 45.72C138.331 45.4707 138.214 45.1187 138.214 44.664V39.472C138.214 38.636 138.052 38.0274 137.73 37.646C137.422 37.2647 136.938 37.074 136.278 37.074C135.471 37.074 134.826 37.3307 134.342 37.844C133.872 38.3427 133.638 39.01 133.638 39.846V44.664C133.638 45.6027 133.176 46.072 132.252 46.072ZM147.893 46.116C146.954 46.116 146.125 45.8887 145.407 45.434C144.703 44.9794 144.153 44.334 143.757 43.498C143.361 42.6474 143.163 41.65 143.163 40.506C143.163 39.3474 143.361 38.3574 143.757 37.536C144.153 36.7 144.703 36.0547 145.407 35.6C146.125 35.1454 146.954 34.918 147.893 34.918C148.787 34.918 149.565 35.138 150.225 35.578C150.899 36.018 151.354 36.5974 151.589 37.316H151.347V31.596C151.347 31.1414 151.464 30.7967 151.699 30.562C151.933 30.3274 152.271 30.21 152.711 30.21C153.151 30.21 153.488 30.3274 153.723 30.562C153.972 30.7967 154.097 31.1414 154.097 31.596V44.664C154.097 45.1187 153.979 45.4707 153.745 45.72C153.51 45.9547 153.173 46.072 152.733 46.072C152.293 46.072 151.955 45.9547 151.721 45.72C151.486 45.4707 151.369 45.1187 151.369 44.664V42.948L151.611 43.608C151.391 44.3707 150.943 44.9794 150.269 45.434C149.594 45.8887 148.802 46.116 147.893 46.116ZM148.663 44.026C149.205 44.026 149.682 43.894 150.093 43.63C150.503 43.366 150.819 42.9774 151.039 42.464C151.273 41.936 151.391 41.2834 151.391 40.506C151.391 39.3327 151.141 38.46 150.643 37.888C150.144 37.3014 149.484 37.008 148.663 37.008C148.12 37.008 147.643 37.14 147.233 37.404C146.822 37.6534 146.499 38.042 146.265 38.57C146.045 39.0834 145.935 39.7287 145.935 40.506C145.935 41.6647 146.184 42.5447 146.683 43.146C147.181 43.7327 147.841 44.026 148.663 44.026ZM160.49 46.116C159.713 46.116 159.016 45.9694 158.4 45.676C157.799 45.368 157.322 44.9574 156.97 44.444C156.633 43.9307 156.464 43.3514 156.464 42.706C156.464 41.914 156.669 41.2907 157.08 40.836C157.491 40.3667 158.158 40.0294 159.082 39.824C160.006 39.6187 161.245 39.516 162.8 39.516H163.9V41.1H162.822C161.913 41.1 161.187 41.144 160.644 41.232C160.101 41.32 159.713 41.474 159.478 41.694C159.258 41.8994 159.148 42.1927 159.148 42.574C159.148 43.058 159.317 43.454 159.654 43.762C159.991 44.07 160.461 44.224 161.062 44.224C161.546 44.224 161.971 44.114 162.338 43.894C162.719 43.6594 163.02 43.344 163.24 42.948C163.46 42.552 163.57 42.0974 163.57 41.584V39.054C163.57 38.3207 163.409 37.7927 163.086 37.47C162.763 37.1474 162.221 36.986 161.458 36.986C161.033 36.986 160.571 37.0374 160.072 37.14C159.588 37.2427 159.075 37.4187 158.532 37.668C158.253 37.8 158.004 37.8367 157.784 37.778C157.579 37.7194 157.417 37.602 157.3 37.426C157.183 37.2354 157.124 37.03 157.124 36.81C157.124 36.59 157.183 36.3774 157.3 36.172C157.417 35.952 157.615 35.7907 157.894 35.688C158.569 35.4094 159.214 35.2114 159.83 35.094C160.461 34.9767 161.033 34.918 161.546 34.918C162.602 34.918 163.467 35.0794 164.142 35.402C164.831 35.7247 165.345 36.216 165.682 36.876C166.019 37.5214 166.188 38.3574 166.188 39.384V44.664C166.188 45.1187 166.078 45.4707 165.858 45.72C165.638 45.9547 165.323 46.072 164.912 46.072C164.501 46.072 164.179 45.9547 163.944 45.72C163.724 45.4707 163.614 45.1187 163.614 44.664V43.608H163.79C163.687 44.1214 163.482 44.5687 163.174 44.95C162.881 45.3167 162.507 45.6027 162.052 45.808C161.597 46.0134 161.077 46.116 160.49 46.116Z" fill="#0E0A2F"/>
<defs>
<clipPath id="clip0_39_36">
<rect x="32" y="24" width="27.792" height="27.792" rx="6" fill="white"/>
</clipPath>
</defs>
</svg>
